<?xml version="1.0" encoding="UTF-8" standalone="no"?>
<svg width="172px" height="172px" viewBox="0 0 172 172" version="1.1" xmlns="http://www.w3.org/2000/svg" xmlns:xlink="http://www.w3.org/1999/xlink" xmlns:sketch="http://www.bohemiancoding.com/sketch/ns">
    <!-- Generator: Sketch 3.2.2 (9983) - http://www.bohemiancoding.com/sketch -->
    <title>WW</title>
    <desc>Created with Sketch.</desc>
    <defs></defs>
    <g id="Page-1" stroke="none" stroke-width="1" fill="none" fill-rule="evenodd" sketch:type="MSPage">
        <g id="WW" sketch:type="MSArtboardGroup">
            <g id="Polygon-1-+-ww" sketch:type="MSLayerGroup" transform="translate(11.000000, 0.000000)">
                <polygon id="Polygon-1" fill="#FFD500" sketch:type="MSShapeGroup" points="75 0 149.478185 43 149.478185 129 75 172 0.521815275 129 0.521815275 43 "></polygon>
                <g id="ww" transform="translate(29.000000, 55.000000)" fill="#000000" sketch:type="MSShapeGroup">
                    <path d="M57,63 L53,63 L39,14 C38.1511054,10.3994328 37.293143,7.12449979 37,5 C36.2635726,7.06704396 35.6129511,9.93979225 35,13 C33.9255996,16.4323008 29.3140516,33.0367859 21,63 L17,63 L0,0 L5,0 L16,41 C16.0011616,42.2298303 16.401544,43.7452051 17,45 C17.1451226,46.5318127 17.4811579,47.8389132 18,49 C18.0817406,50.2807859 18.3534287,51.4586127 19,53 C18.8396147,53.7281178 19.061255,54.8700353 19,56 C19.9478295,52.1121556 21.4063657,46.1799303 24,38 L34,0 L39,0 L52,44 C53.2371087,48.9234179 54.280963,53.0027205 55,56 C55.2819342,54.0369254 55.7609633,51.8392729 56,50 C56.9335295,47.1853509 61.3448864,30.681412 70,0 L74,0 L57,63 Z" id="W"></path>
                    <path d="M74,63 L70,63 L56,14 C55.1511054,10.3994328 54.293143,7.12449979 54,5 C53.2635726,7.06704396 52.6129511,9.93979225 52,13 C50.9255996,16.4323008 46.3140516,33.0367859 38,63 L34,63 L17,0 L22,0 L33,41 C33.0011616,42.2298303 33.401544,43.7452051 34,45 C34.1451226,46.5318127 34.4811579,47.8389132 35,49 C35.0817406,50.2807859 35.3534287,51.4586127 36,53 C35.8396147,53.7281178 36.061255,54.8700353 36,56 C36.9478295,52.1121556 38.4063657,46.1799303 41,38 L51,0 L56,0 L69,44 C70.2371087,48.9234179 71.280963,53.0027205 72,56 C72.2819342,54.0369254 72.7609633,51.8392729 73,50 C73.9335295,47.1853509 78.3448864,30.681412 87,0 L91,0 L74,63 Z" id="W-2"></path>
                </g>
            </g>
        </g>
    </g>
</svg>